<svg width="26" height="24" viewBox="0 0 26 24" fill="none" xmlns="http://www.w3.org/2000/svg">
<path id="Vector" d="M7.39929 13.7764L11.1726 10.003L2.91929 1.76302C2.27929 1.12302 1.17262 1.29636 0.77262 2.12302C-0.174046 4.10969 0.17262 6.54969 1.81262 8.20302L7.39929 13.7764ZM16.4393 11.363C18.4793 12.3097 21.346 11.643 23.466 9.52302C26.0126 6.97635 26.506 3.32302 24.546 1.36302C22.5993 -0.583644 18.946 -0.103644 16.386 2.44302C14.266 4.56302 13.5993 7.42969 14.546 9.46969L2.46595 21.5497C2.21665 21.799 2.07659 22.1371 2.07659 22.4897C2.07659 22.8423 2.21665 23.1804 2.46595 23.4297C2.71526 23.679 3.05339 23.819 3.40595 23.819C3.75852 23.819 4.09665 23.679 4.34595 23.4297L12.5993 15.203L20.8393 23.443C20.9627 23.5665 21.1093 23.6644 21.2706 23.7312C21.4318 23.798 21.6047 23.8324 21.7793 23.8324C21.9539 23.8324 22.1267 23.798 22.288 23.7312C22.4493 23.6644 22.5958 23.5665 22.7193 23.443C22.8427 23.3196 22.9407 23.173 23.0075 23.0117C23.0743 22.8505 23.1087 22.6776 23.1087 22.503C23.1087 22.3284 23.0743 22.1556 23.0075 21.9943C22.9407 21.833 22.8427 21.6865 22.7193 21.563L14.4793 13.323L16.4393 11.363Z" fill="#0ED2F6"/>
</svg>
